<?xml version="1.0" encoding="UTF-8"?>
<svg id="Capa_2" data-name="Capa 2" xmlns="http://www.w3.org/2000/svg" viewBox="0 0 1086.36 1086.36">
  <defs>
    <style>
      .cls-1 {
        fill: #344e9c;
      }

      .cls-2 {
        fill: #f8f5d2;
      }
    </style>
  </defs>
  <g id="Capa_1-2" data-name="Capa 1">
    <g>
      <rect class="cls-1" width="1086.36" height="1086.36"/>
      <g>
        <g>
          <path class="cls-2" d="M537.66,410.55s-6.81,45.85,19.06,82.74c11.92,16.99,25.43,29.15,25.43,30.01-.39,10.63-75.46,10.83-89.44,1.31-42.95-29.26-47.51-143.2-47.51-143.81,0-15.34,53.66-24.12,82.81-25.04.16.78.16,1.54.29,2.31,2.14,13.02,16.3,25.26,16.9,25.8-.27-.47-7.32-13.09-7.11-27.94.06-4.69.76-9.67,2.84-14.46,8.58-19.76,5.33-30.68,3.41-37.15-1.1-3.73-3.38-6.88-5.37-10.13-.08.42.5,10.66-4.39,25.01-.89,2.66-3.74,8.32-4.16,8.34-22.74,1.44-37.16-14.96-37.16-14.96-11.83-11.83-11.3-32.14.75-43.74,11.69-11.25,30.27-11.1,41.79.41l9.27,9.27,9.37-9.37c11.65-11.65,30.55-11.65,42.2,0,1.58,1.58,2.95,3.3,4.1,5.11,6.88,10.82,6.11,25.1-2.31,35.15-1.02,1.22-2.23,2.27-3.52,3.2-2.45,1.76-7,5.04-10.48,7.54-3.24,2.33-6.7,4.34-10.33,5.98-10.67,4.83-24.48,11.53-26.97,29.65h0c1.66.05,3.3.11,4.91.19,52.05,2.38,78.11,16.39,78.11,27.14,0,15.17-41.4,27.47-92.48,27.47Z"/>
          <path class="cls-2" d="M676.16,450.39c0,18.9-11.76,35.05-28.38,41.54-5.02,1.97-10.49,3.04-16.2,3.04-4.48,0-8.81-.66-12.88-1.9.38,0,.77.02,1.15.02,3.62,0,7.15-.43,10.52-1.25,4.8-1.15,9.29-3.09,13.35-5.67.06-.04.13-.08.2-.12,8.03-4.97,17.13-13.89,19.78-29.44.04-.2.07-.39.1-.59.42-2.44.63-4.95.63-7.51v-.42c0-7.26-1.68-13.39-4.19-18.47-.02-.03-.02-.06-.05-.09-4.33-9.22-11.74-16.7-20.89-21.14-2.11-1.02-4.3-1.88-6.58-2.56,23.24.57,42.06,18.94,43.37,41.99,0,.11.02.22.02.32.04.75.06,1.5.06,2.26Z"/>
        </g>
        <g>
          <path class="cls-2" d="M196.47,583.13h-19.8l-58.47,129.23h23.83l12.98-29.88h63.68l12.98,29.88h24.01l-59.21-129.23ZM162.94,663.97l23.45-55.54h.74l23.95,55.54h-48.13Z"/>
          <path class="cls-2" d="M531.52,694.52c-.84-2.56-4.47-5.07-7.1-4.45-1.39.34-2.48,1.41-3.47,2.42-2.75,2.97-5.23,6.18-8.67,7.81-5.62,2.34-6.76-1.97-5.35-6.48,6.02-18.88,20.08-59.76,22.98-69.32.3-1.36.3-4.22-1.42-5.23-2.53-1.51-6.97-1.53-10.08-.74-2.37.56-3.45,3.75-6.11,3.35-14.72-6.18-30.8-6.54-44.82,1.24-16.4,8.89-27.55,25.95-33.15,43.32-2.99,7.87-7.79,14.86-13.21,21.31-3.37,3.93-6.23,7.2-10.88,9.54-.59.3-1.2.56-1.82.81-3.83,1.52-11.55,5.16-14.47,1.52-1.03-1.58-.35-4.51,0-6.03.5-2.02,1.08-3.52,1.75-5.62,2.26-6.9,6.7-20.49,9.19-28.09,2.66-7.86,5.29-16.32,5.08-24.43,0-18.94-17.04-21.57-31.32-15.09-7.56,3.65-12.93,8.48-18.94,15.28-2.68,3.06-5.02,6.25-7.31,9.5-.49.65-.86,1.04-1.06,1.02-.63-.44.31-3.15.43-5.3,3.69-26.95-20.76-28.84-38.24-16.13-8.05,5.68-14.28,14.13-20.08,22.06.67-3.6,4.98-16.3,5.85-19.53.75-2.54,1.91-6.16-.69-8.02-2.21-1.4-7.34-1.64-10.05-.3-2.03,1.01-3.33,3.81-3.9,5.64-2.31,7.5-23.72,77.1-25.8,83.86-2.37,6.99,8.83,8.09,12.52,4.82,1.53-1.26,2.22-3.04,2.79-4.89.92-2.93,2.98-9.56,4.07-13.05,2.91-8.72,7.48-17.28,11.59-25.01,5.98-10.71,12.56-20.87,21.12-29.17,5.74-5.46,14.36-11.66,22.5-8.09,5.77,3.33,2.74,12.03,1.3,17.08-1.98,6.54-13.39,43.03-18.09,58.3-2.4,7.15,9.3,8.16,12.75,4.55,1.41-1.31,2.07-3.06,2.63-4.86.9-2.89,2.77-8.92,3.79-12.2,2.78-8.43,7.09-16.59,11.02-24.13,6.06-11.03,12.65-21.53,21.29-30.16,5.95-5.82,15.54-12.79,23.83-8.14,4.95,4.12,1.78,12.26.3,17.45-1.77,5.56-7.42,23.2-10.22,31.98-2.49,8.91-6.92,21.51.85,29.08,5.62,4.28,13.59,3.82,20.24,2.69,10.25-1.8,19.81-7.21,26.87-14.72,1.98-1.86,2.65-.35,3.63,2.06,5.16,13.16,19.67,16.43,31.74,10.59,10.81-4.96,18.9-13.91,26.2-23.02,1.96-2.41,1.32-.02.71,2.65-1.01,5.19-1.8,11.09.59,16.01,5.19,10.12,20.6,7.72,28.27,1.51,3.66-2.93,11.45-10.05,10.42-15.06l-.05-.19ZM505.01,650.19c-8.39,15.64-17.31,30.51-29.38,41.87-23.42,20.72-33.44,1.18-25.84-22.64,4.99-17.1,17.22-35.75,36.48-37.56,6.8-.57,13.55.28,20.08,2.47.97.35,2.16.68,2.81,1.45.47.62.29,1.43.08,2.15-1.25,3.6-2.67,8.6-4.13,12.09l-.08.18Z"/>
          <path class="cls-2" d="M655.51,714.2c-9.53,0-17.87-1.95-25.02-5.87-7.15-3.91-12.68-9.5-16.59-16.77-3.91-7.27-5.87-15.91-5.87-25.94s1.99-18.57,5.96-25.66c3.97-7.09,9.5-12.52,16.59-16.31,7.09-3.79,15.4-5.68,24.93-5.68,6.11,0,12.07.95,17.87,2.84,5.8,1.9,10.54,4.61,14.21,8.16l-6.97,15.95c-3.3-3.05-7-5.34-11.09-6.87-4.1-1.53-8.1-2.29-12.01-2.29-8.19,0-14.57,2.57-19.15,7.7-4.58,5.13-6.87,12.59-6.87,22.36s2.29,17.29,6.87,22.54c4.58,5.26,10.97,7.88,19.15,7.88,3.79,0,7.73-.73,11.82-2.2,4.09-1.47,7.85-3.73,11.27-6.78l6.97,15.76c-3.79,3.55-8.59,6.3-14.39,8.25-5.81,1.95-11.7,2.93-17.69,2.93Z"/>
          <path class="cls-2" d="M734.45,714.2c-8.07,0-15.15-1.92-21.26-5.77-6.11-3.85-10.88-9.38-14.3-16.59-3.42-7.21-5.13-15.82-5.13-25.85s1.71-18.6,5.13-25.75c3.42-7.15,8.19-12.65,14.3-16.5,6.11-3.85,13.2-5.77,21.26-5.77s14.69,1.92,20.62,5.77c5.93,3.85,9.87,9.01,11.82,15.49h-2.02l2.02-19.43h22c-.37,3.79-.7,7.64-1.01,11.55-.31,3.91-.46,7.76-.46,11.55v69.47h-22.73l-.18-19.06h2.2c-1.96,6.35-5.93,11.43-11.91,15.21-5.99,3.79-12.77,5.68-20.35,5.68ZM740.86,696.6c7.21,0,13.01-2.53,17.41-7.61,4.4-5.07,6.6-12.74,6.6-23s-2.2-17.9-6.6-22.91c-4.4-5.01-10.2-7.51-17.41-7.51s-13.01,2.51-17.41,7.51c-4.4,5.01-6.6,12.65-6.6,22.91s2.17,17.93,6.51,23c4.34,5.07,10.17,7.61,17.51,7.61Z"/>
          <path class="cls-2" d="M831.01,670.71l-1.34,4.18c1.64-1.56,3.26-3.15,4.88-4.79-1.16.1-2.33.31-3.53.61ZM831.01,670.71l-1.34,4.18c1.64-1.56,3.26-3.15,4.88-4.79-1.16.1-2.33.31-3.53.61Z"/>
          <path class="cls-2" d="M971.57,562.23c-1.1-1.33-2.42-2.44-3.93-3.3-1.54-.84-2.91-1.28-4.13-1.28-.98,0-1.89.26-2.75.73-.86.49-1.83,1.47-2.93,2.93l-22.55,28.05c-.61.73-1.08,1.47-1.38,2.2s-.45,1.54-.45,2.38c0,1.36.76,2.6,2.29,3.76,1.53,1.16,2.85,1.74,3.95,1.74,1.71,0,3.48-.92,5.32-2.75l25.85-26.03c.73-.6,1.31-1.21,1.74-1.83.43-.6.65-1.39.65-2.38,0-1.47-.55-2.86-1.65-4.22Z"/>
          <path class="cls-2" d="M964.22,628.5c-4.64-7.27-14.17-10.05-22.52-10.02-23.57-.98-43.41,15.45-52.3,36.2-4.38,9.63-6.28,20.22-6.39,30.67-.31,5.14-4.41,8.69-8.64,11.03-5.94,3.47-13.01,3.51-19.7,3.33-3.88-.01-5.28-2.73-5.17-6.29-.12-6.55-.7-13.96-5.62-18.75-1.9-2.05-6.12-2.9-6.8-4.09-.23-.36-.24-.73-.1-1.15.96-2.13,3.61-4.3,5.22-6.2,7.25-7.88,13.91-15.88,20.33-24.33,15.61-20.85,29.56-43.05,37.43-67.93,3.28-11.21,5.49-24.65-.81-35.2-6.36-11.31-22.2-11.24-31.36-3.49-8.11,6.66-11.71,15.01-16.02,25.91-6.83,18.81-26.79,83.64-38.36,116.54-2.71,3.2-9.02,7.83-12.65,10.89-1.69,1.41-3.26,2.99-3.69,5.18-.72,3.03.94,7.47,4.42,7.26,1.87-.13,3.73-1.36,4.41-1.61.14-.05.33-.1.44,0,.31.31-.46,2.07-1.17,4.38-4.78,14.71-13.8,42.38-19.21,59.03-3.46,10.93-7.16,22.47-5.37,34.29,1.36,10.63,11.6,16.29,21.7,13.54,22.2-6.62,33.87-47.51,39.45-67.96,1.72-6.68,3.19-13.86,4.48-20.52.4-1.7.86-3.08,2.1-4.16,1.31-1.1,2.98-1.36,4.67-1.55,2.49-.22,5.09-.56,7.56-1.13,7.08-1.65,14.1-4.2,20.02-8.55,1.46-1.01,3.22-2.57,4.97-2.43,2.53.33,3.71,3.5,6.1,6.02,12.98,14.25,36.47,11.3,50.93,1,3.84-2.69,7.18-5.67,10.63-9.5,1.64-1.87,3.33-4.14,3.66-6.6.62-3.83-3.25-7.71-7.06-7.4-1.79.11-3.56,1.07-5.16,2.38-5.5,4.91-10.7,10.58-17.76,13.25-8.34,3.29-19.58,2.08-24.13-6.25-3.04-5.43-4.89-13.6,3.16-14.53,7.82-1.37,15.82-3.15,23.24-5.49,19.32-5.48,47.67-21.91,35.19-45.56l-.12-.19ZM864.71,566.27c2.2-6.83,4.22-12.12,6.05-15.85,1.83-3.73,3.6-6.33,5.32-7.8,1.71-1.47,3.42-2.2,5.13-2.2s2.99.44,3.85,1.28c.86.87,1.5,2.05,1.93,3.58.43,1.53.64,3.28.64,5.22,0,5.27-.89,11-2.65,17.23-1.77,6.23-4.22,12.78-7.33,19.61-3.12,6.86-6.78,13.82-11,20.9-4.22,7.1-8.8,14.11-13.75,21.08-4.67,6.56-9.56,12.89-14.65,18.97l26.47-82.02ZM828.6,727.57c-1.59,6.48-3.36,12.87-5.32,19.16-1.96,6.29-4,12.18-6.13,17.68-2.14,5.5-4.28,10.36-6.42,14.58-2.14,4.22-4.22,7.52-6.23,9.9-2.02,2.38-3.76,3.57-5.23,3.57-1.71,0-2.84-.82-3.38-2.47-.55-1.65-.53-4.34.09-8.07.61-3.73,1.89-8.59,3.85-14.58l20.02-62.03c1.61,1.11,3.35,2.05,5.19,2.82,2.07.87,4.39,1.6,6.99,2.2-.83,5.6-1.98,11.34-3.42,17.23ZM834.32,697.12c-1.89-.45-3.56-1.05-4.99-1.81-2.57-1.33-3.85-3.35-3.85-6.05,0-1.47.43-2.62,1.28-3.48.86-.84,1.96-1.28,3.3-1.28,1.22,0,2.2.55,2.93,1.65.73,1.1,1.2,2.7,1.38,4.77.16,1.77.12,3.84-.06,6.21ZM947.2,649.3c-2.32,2.57-5.5,4.89-9.53,6.97-4.03,2.09-8.55,3.85-13.56,5.32-5.01,1.47-10.14,2.69-15.4,3.67-2.42.45-4.8.86-7.11,1.2.18-.66.39-1.34.6-2.02,1.77-5.68,4.34-11,7.71-15.95,3.35-4.95,7.5-8.98,12.45-12.1,4.96-3.12,10.55-4.68,16.78-4.68,3.67,0,6.51.71,8.53,2.11,2,1.41,3.02,3.7,3.02,6.87s-1.16,6.05-3.48,8.61Z"/>
        </g>
        <g>
          <path class="cls-2" d="M127.6,807.98c-4.14,0-7.69-.84-10.64-2.51-2.96-1.67-5.22-4.05-6.8-7.11-1.58-3.07-2.37-6.69-2.37-10.87s.79-7.79,2.37-10.84c1.58-3.05,3.85-5.41,6.8-7.09,2.95-1.67,6.5-2.51,10.64-2.51,2.78,0,5.3.39,7.54,1.19,2.24.79,4.17,1.96,5.79,3.5l-2.37,5.76c-1.77-1.43-3.47-2.46-5.11-3.08-1.64-.62-3.51-.93-5.62-.93-4.03,0-7.1,1.21-9.23,3.64-2.13,2.43-3.19,5.88-3.19,10.36s1.06,7.94,3.19,10.39c2.13,2.45,5.2,3.67,9.23,3.67,2.11,0,3.98-.31,5.62-.93,1.64-.62,3.34-1.67,5.11-3.13l2.37,5.76c-1.62,1.51-3.55,2.67-5.79,3.5-2.24.83-4.75,1.24-7.54,1.24Z"/>
          <path class="cls-2" d="M158.76,807.98c-2.48,0-4.67-.59-6.55-1.78-1.88-1.19-3.35-2.89-4.41-5.11-1.05-2.22-1.58-4.87-1.58-7.96s.53-5.73,1.58-7.93c1.05-2.2,2.52-3.9,4.41-5.08,1.88-1.19,4.06-1.78,6.55-1.78s4.53.59,6.35,1.78c1.83,1.19,3.04,2.78,3.64,4.77h-.62l.62-5.98h6.78c-.11,1.17-.22,2.35-.31,3.56-.09,1.2-.14,2.39-.14,3.56v21.4h-7l-.06-5.87h.68c-.6,1.96-1.82,3.52-3.67,4.69-1.84,1.17-3.93,1.75-6.27,1.75ZM160.74,802.56c2.22,0,4.01-.78,5.36-2.34,1.35-1.56,2.03-3.92,2.03-7.09s-.68-5.51-2.03-7.06c-1.36-1.54-3.14-2.31-5.36-2.31s-4.01.77-5.36,2.31c-1.36,1.54-2.03,3.9-2.03,7.06s.67,5.52,2,7.09c1.34,1.56,3.13,2.34,5.39,2.34Z"/>
          <path class="cls-2" d="M186.26,807.41v-23.2h-5.47v-5.31h7.45l-1.98,1.81v-4.35c0-3.54.91-6.21,2.74-8.02,1.83-1.81,4.51-2.71,8.05-2.71.83,0,1.7.06,2.62.17.92.11,1.72.32,2.4.62v5.53c-.49-.19-1.08-.34-1.75-.45-.68-.11-1.34-.17-1.98-.17-.98,0-1.86.19-2.62.56-.77.38-1.38.95-1.81,1.72-.43.77-.65,1.8-.65,3.08v3.44l-1.02-1.24h8.53v5.31h-7.45v23.2h-7.06Z"/>
          <path class="cls-2" d="M219.74,807.98c-4.78,0-8.52-1.32-11.24-3.95-2.71-2.63-4.06-6.25-4.06-10.84,0-2.97.58-5.57,1.75-7.79,1.17-2.22,2.8-3.95,4.88-5.2,2.09-1.24,4.53-1.86,7.31-1.86s5.04.58,6.89,1.75c1.84,1.17,3.25,2.8,4.21,4.91.96,2.11,1.44,4.57,1.44,7.4v1.86h-20.78v-3.73h15.75l-.96.79c0-2.63-.55-4.65-1.67-6.04-1.11-1.39-2.72-2.09-4.83-2.09-2.33,0-4.13.83-5.39,2.48-1.26,1.66-1.89,3.97-1.89,6.94v.73c0,3.09.76,5.39,2.29,6.92,1.52,1.52,3.68,2.29,6.46,2.29,1.62,0,3.13-.22,4.55-.65,1.41-.43,2.76-1.14,4.04-2.12l2.09,4.74c-1.35,1.09-2.97,1.94-4.85,2.54-1.88.6-3.88.9-5.98.9ZM216.01,776.14l5.82-11.46h6.94l-8.02,11.46h-4.74Z"/>
          <path class="cls-2" d="M268.63,807.98c-2.94,0-5.51-.6-7.71-1.81-2.2-1.2-3.9-2.93-5.11-5.17-1.2-2.24-1.81-4.9-1.81-7.99s.61-5.72,1.84-7.9c1.22-2.18,2.92-3.86,5.11-5.03,2.18-1.17,4.74-1.75,7.68-1.75,1.88,0,3.72.29,5.51.87,1.79.58,3.24,1.42,4.37,2.51l-2.14,4.91c-1.02-.94-2.16-1.65-3.42-2.12-1.26-.47-2.49-.71-3.7-.71-2.52,0-4.49.79-5.9,2.37-1.41,1.58-2.12,3.88-2.12,6.89s.71,5.33,2.12,6.94c1.41,1.62,3.38,2.43,5.9,2.43,1.17,0,2.38-.23,3.64-.68,1.26-.45,2.42-1.15,3.47-2.09l2.14,4.86c-1.17,1.09-2.65,1.94-4.43,2.54-1.79.6-3.6.9-5.45.9Z"/>
          <path class="cls-2" d="M297.88,807.98c-2.94,0-5.48-.6-7.62-1.81-2.14-1.2-3.81-2.92-5-5.14-1.19-2.22-1.78-4.86-1.78-7.9s.59-5.67,1.78-7.88c1.19-2.2,2.85-3.9,5-5.11,2.14-1.2,4.69-1.81,7.62-1.81s5.49.6,7.65,1.81c2.16,1.21,3.84,2.91,5.03,5.11,1.19,2.2,1.78,4.83,1.78,7.88s-.59,5.68-1.78,7.9c-1.19,2.22-2.86,3.93-5.03,5.14-2.16,1.2-4.71,1.81-7.65,1.81ZM297.88,802.56c2.22,0,3.99-.78,5.31-2.34s1.98-3.92,1.98-7.09-.66-5.51-1.98-7.06c-1.32-1.54-3.09-2.31-5.31-2.31s-3.99.77-5.31,2.31c-1.32,1.54-1.98,3.9-1.98,7.06s.66,5.52,1.98,7.09c1.31,1.56,3.08,2.34,5.31,2.34Z"/>
          <path class="cls-2" d="M320.01,807.41v-21.4c0-1.17-.04-2.35-.11-3.56-.08-1.2-.19-2.39-.34-3.56h6.83l.57,5.65h-.68c.9-1.99,2.24-3.53,4.01-4.6s3.82-1.61,6.16-1.61c3.35,0,5.87.94,7.56,2.82,1.69,1.88,2.54,4.82,2.54,8.81v17.45h-7.06v-17.11c0-2.29-.44-3.94-1.33-4.94-.88-1-2.21-1.5-3.98-1.5-2.18,0-3.91.68-5.19,2.03-1.28,1.35-1.92,3.16-1.92,5.42v16.09h-7.06Z"/>
          <path class="cls-2" d="M372.68,819.61v-33.59c0-1.17-.04-2.35-.11-3.56-.08-1.2-.19-2.39-.34-3.56h6.83l.62,5.98h-.62c.57-1.99,1.76-3.59,3.58-4.77s3.94-1.78,6.35-1.78,4.73.59,6.61,1.78c1.88,1.19,3.35,2.88,4.4,5.08,1.05,2.2,1.58,4.85,1.58,7.93s-.53,5.74-1.58,7.96c-1.05,2.22-2.52,3.92-4.4,5.11-1.88,1.19-4.09,1.78-6.61,1.78-2.37,0-4.46-.58-6.27-1.75-1.81-1.17-3.01-2.73-3.61-4.69h.62v18.07h-7.06ZM387.02,802.56c2.26,0,4.06-.78,5.42-2.34,1.35-1.56,2.03-3.92,2.03-7.09s-.68-5.51-2.03-7.06c-1.36-1.54-3.16-2.31-5.42-2.31s-4.01.77-5.36,2.31c-1.36,1.54-2.03,3.9-2.03,7.06s.68,5.52,2.03,7.09c1.35,1.56,3.14,2.34,5.36,2.34Z"/>
          <path class="cls-2" d="M423.04,807.98c-4.78,0-8.53-1.32-11.24-3.95-2.71-2.63-4.06-6.25-4.06-10.84,0-2.97.58-5.57,1.75-7.79,1.17-2.22,2.79-3.95,4.88-5.2,2.09-1.24,4.53-1.86,7.31-1.86s5.04.58,6.89,1.75c1.84,1.17,3.24,2.8,4.21,4.91.96,2.11,1.44,4.57,1.44,7.4v1.86h-20.78v-3.73h15.75l-.96.79c0-2.63-.56-4.65-1.67-6.04-1.11-1.39-2.72-2.09-4.83-2.09-2.33,0-4.13.83-5.39,2.48-1.26,1.66-1.89,3.97-1.89,6.94v.73c0,3.09.76,5.39,2.29,6.92,1.52,1.52,3.68,2.29,6.46,2.29,1.62,0,3.13-.22,4.55-.65,1.41-.43,2.76-1.14,4.04-2.12l2.09,4.74c-1.36,1.09-2.97,1.94-4.85,2.54-1.88.6-3.88.9-5.98.9Z"/>
          <path class="cls-2" d="M441.73,807.41v-21.23c0-1.2-.03-2.43-.09-3.67-.06-1.24-.16-2.45-.31-3.61h6.83l.79,7.79h-1.13c.37-1.88,1.01-3.44,1.89-4.69s1.97-2.16,3.25-2.77c1.28-.6,2.67-.9,4.18-.9.68,0,1.22.03,1.64.08s.83.16,1.24.31l-.06,6.21c-.71-.3-1.33-.49-1.83-.57-.51-.07-1.14-.11-1.89-.11-1.62,0-2.99.34-4.09,1.02-1.11.68-1.94,1.62-2.48,2.82-.55,1.2-.82,2.58-.82,4.12v15.19h-7.12Z"/>
          <path class="cls-2" d="M475.43,807.98c-2.45,0-4.69-.29-6.75-.88-2.05-.58-3.77-1.4-5.17-2.46l1.98-4.74c1.43.98,3.01,1.73,4.74,2.26s3.48.79,5.25.79c1.88,0,3.28-.32,4.2-.96.92-.64,1.38-1.51,1.38-2.6,0-.87-.29-1.55-.87-2.06-.58-.51-1.52-.89-2.8-1.16l-5.65-1.07c-2.41-.53-4.25-1.43-5.51-2.71-1.26-1.28-1.89-2.96-1.89-5.03,0-1.77.48-3.33,1.44-4.69.96-1.36,2.33-2.42,4.12-3.19,1.79-.77,3.89-1.16,6.3-1.16,2.11,0,4.09.28,5.95.85,1.86.57,3.43,1.41,4.71,2.54l-2.03,4.57c-1.17-.94-2.5-1.67-4.01-2.2-1.51-.53-2.97-.79-4.4-.79-1.96,0-3.39.35-4.29,1.04-.9.7-1.35,1.59-1.35,2.68,0,.83.27,1.52.82,2.06.54.55,1.4.95,2.57,1.21l5.65,1.07c2.52.49,4.43,1.35,5.73,2.57,1.3,1.22,1.95,2.89,1.95,5,0,1.88-.51,3.5-1.52,4.86-1.02,1.35-2.43,2.39-4.23,3.1-1.81.72-3.91,1.07-6.32,1.07Z"/>
          <path class="cls-2" d="M508.01,807.98c-2.94,0-5.47-.6-7.62-1.81-2.14-1.2-3.81-2.92-5-5.14-1.19-2.22-1.78-4.86-1.78-7.9s.59-5.67,1.78-7.88c1.19-2.2,2.85-3.9,5-5.11,2.15-1.2,4.69-1.81,7.62-1.81s5.49.6,7.65,1.81c2.16,1.21,3.84,2.91,5.03,5.11,1.19,2.2,1.78,4.83,1.78,7.88s-.59,5.68-1.78,7.9c-1.19,2.22-2.86,3.93-5.03,5.14-2.16,1.2-4.71,1.81-7.65,1.81ZM508.01,802.56c2.22,0,3.99-.78,5.31-2.34s1.98-3.92,1.98-7.09-.66-5.51-1.98-7.06c-1.32-1.54-3.08-2.31-5.31-2.31s-3.99.77-5.31,2.31c-1.32,1.54-1.98,3.9-1.98,7.06s.66,5.52,1.98,7.09c1.32,1.56,3.08,2.34,5.31,2.34Z"/>
          <path class="cls-2" d="M530.14,807.41v-21.4c0-1.17-.04-2.35-.11-3.56-.08-1.2-.19-2.39-.34-3.56h6.83l.57,5.65h-.68c.9-1.99,2.24-3.53,4.01-4.6,1.77-1.07,3.82-1.61,6.15-1.61,3.35,0,5.87.94,7.57,2.82,1.69,1.88,2.54,4.82,2.54,8.81v17.45h-7.06v-17.11c0-2.29-.44-3.94-1.33-4.94-.88-1-2.21-1.5-3.98-1.5-2.18,0-3.91.68-5.19,2.03s-1.92,3.16-1.92,5.42v16.09h-7.06Z"/>
          <path class="cls-2" d="M576.77,807.98c-2.48,0-4.67-.59-6.55-1.78-1.88-1.19-3.35-2.89-4.41-5.11-1.05-2.22-1.58-4.87-1.58-7.96s.53-5.73,1.58-7.93c1.05-2.2,2.52-3.9,4.41-5.08,1.88-1.19,4.06-1.78,6.55-1.78s4.53.59,6.35,1.78,3.04,2.78,3.64,4.77h-.62l.62-5.98h6.78c-.11,1.17-.22,2.35-.31,3.56-.09,1.2-.14,2.39-.14,3.56v21.4h-7l-.06-5.87h.68c-.6,1.96-1.83,3.52-3.67,4.69-1.85,1.17-3.93,1.75-6.27,1.75ZM578.75,802.56c2.22,0,4.01-.78,5.36-2.34,1.35-1.56,2.03-3.92,2.03-7.09s-.68-5.51-2.03-7.06c-1.36-1.54-3.15-2.31-5.36-2.31s-4.01.77-5.36,2.31c-1.35,1.54-2.03,3.9-2.03,7.06s.67,5.52,2,7.09,3.13,2.34,5.39,2.34Z"/>
          <path class="cls-2" d="M602.35,807.41v-41.55h7.06v41.55h-7.06Z"/>
          <path class="cls-2" d="M618.27,773.54v-6.89h7.85v6.89h-7.85ZM618.67,807.41v-28.51h7.06v28.51h-7.06Z"/>
          <path class="cls-2" d="M646.05,807.98c-2.48,0-4.68-.59-6.58-1.78-1.9-1.19-3.38-2.89-4.43-5.11-1.05-2.22-1.58-4.87-1.58-7.96s.53-5.73,1.58-7.93c1.05-2.2,2.53-3.9,4.43-5.08,1.9-1.19,4.09-1.78,6.58-1.78s4.47.57,6.29,1.72,3.04,2.7,3.64,4.66h-.73v-18.86h7.06v41.55h-6.94v-6.04h.68c-.6,2.03-1.82,3.64-3.64,4.83-1.83,1.19-3.94,1.78-6.35,1.78ZM648.02,802.56c2.22,0,4.01-.78,5.36-2.34,1.36-1.56,2.03-3.92,2.03-7.09s-.68-5.51-2.03-7.06c-1.35-1.54-3.14-2.31-5.36-2.31s-4.02.77-5.39,2.31c-1.38,1.54-2.06,3.9-2.06,7.06s.69,5.52,2.06,7.09c1.37,1.56,3.17,2.34,5.39,2.34Z"/>
          <path class="cls-2" d="M682.58,807.98c-2.48,0-4.67-.59-6.55-1.78-1.88-1.19-3.35-2.89-4.41-5.11-1.05-2.22-1.58-4.87-1.58-7.96s.53-5.73,1.58-7.93c1.05-2.2,2.52-3.9,4.41-5.08,1.88-1.19,4.06-1.78,6.55-1.78s4.53.59,6.35,1.78,3.04,2.78,3.64,4.77h-.62l.62-5.98h6.78c-.11,1.17-.22,2.35-.31,3.56s-.14,2.39-.14,3.56v21.4h-7l-.06-5.87h.68c-.6,1.96-1.83,3.52-3.67,4.69-1.85,1.17-3.93,1.75-6.27,1.75ZM684.55,802.56c2.22,0,4.01-.78,5.36-2.34,1.35-1.56,2.03-3.92,2.03-7.09s-.68-5.51-2.03-7.06c-1.36-1.54-3.15-2.31-5.36-2.31s-4.01.77-5.36,2.31c-1.35,1.54-2.03,3.9-2.03,7.06s.67,5.52,2,7.09,3.13,2.34,5.39,2.34Z"/>
          <path class="cls-2" d="M719.22,807.98c-2.48,0-4.68-.59-6.58-1.78-1.9-1.19-3.38-2.89-4.43-5.11-1.05-2.22-1.58-4.87-1.58-7.96s.53-5.73,1.58-7.93c1.05-2.2,2.53-3.9,4.43-5.08,1.9-1.19,4.09-1.78,6.58-1.78s4.47.57,6.29,1.72,3.04,2.7,3.64,4.66h-.73v-18.86h7.06v41.55h-6.94v-6.04h.68c-.6,2.03-1.82,3.64-3.64,4.83-1.83,1.19-3.94,1.78-6.35,1.78ZM721.2,802.56c2.22,0,4.01-.78,5.36-2.34,1.36-1.56,2.03-3.92,2.03-7.09s-.68-5.51-2.03-7.06c-1.35-1.54-3.14-2.31-5.36-2.31s-4.02.77-5.39,2.31c-1.38,1.54-2.06,3.9-2.06,7.06s.69,5.52,2.06,7.09c1.37,1.56,3.17,2.34,5.39,2.34Z"/>
        </g>
      </g>
    </g>
  </g>
</svg>